<svg version="1.1" viewBox="0.0 0.0 960.0 720.0" fill="none" stroke="none" stroke-linecap="square" stroke-miterlimit="10" xmlns:xlink="http://www.w3.org/1999/xlink" xmlns="http://www.w3.org/2000/svg"><clipPath id="p.0"><path d="m0 0l960.0 0l0 720.0l-960.0 0l0 -720.0z" clip-rule="nonzero"/></clipPath><g clip-path="url(#p.0)"><path fill="#000000" fill-opacity="0.0" d="m0 0l960.0 0l0 720.0l-960.0 0z" fill-rule="evenodd"/><path fill="#000000" fill-opacity="0.0" d="m261.92654 65.77955c-19.058304 -1.9029007 -39.625732 -9.502998 -57.40944 -2.3910713c-23.12828 9.249279 -45.0477 26.2131 -57.40683 47.839893c-18.586823 32.52439 -0.5962677 89.70673 32.291336 107.64304c22.094574 12.049988 51.784454 13.6184845 75.349075 4.7821503c22.9655 -8.611664 43.17598 -29.527435 51.42784 -52.624664c11.027679 -30.866913 13.811523 -72.89338 -7.175873 -98.07087c-12.266113 -14.715046 -37.055603 -11.960632 -56.212585 -11.960632" fill-rule="evenodd"/><path stroke="#000000" stroke-width="1.0" stroke-linejoin="round" stroke-linecap="butt" d="m261.92654 65.77955c-19.058304 -1.9029007 -39.625732 -9.502998 -57.40944 -2.3910713c-23.12828 9.249279 -45.0477 26.2131 -57.40683 47.839893c-18.586823 32.52439 -0.5962677 89.70673 32.291336 107.64304c22.094574 12.049988 51.784454 13.6184845 75.349075 4.7821503c22.9655 -8.611664 43.17598 -29.527435 51.42784 -52.624664c11.027679 -30.866913 13.811523 -72.89338 -7.175873 -98.07087c-12.266113 -14.715046 -37.055603 -11.960632 -56.212585 -11.960632" fill-rule="evenodd"/><path fill="#000000" fill-opacity="0.0" d="m539.40063 65.7791c-30.364746 0 -63.738586 -7.5978966 -90.897644 5.9816284c-29.769836 14.884933 -42.8183 62.91043 -32.29132 94.485565c22.03415 66.09038 149.39197 85.65402 204.51703 43.055115c29.105469 -22.49173 35.714355 -85.42583 8.372742 -110.031494c-32.496338 -29.244568 -84.25586 -28.706032 -127.973755 -28.706032" fill-rule="evenodd"/><path stroke="#000000" stroke-width="1.0" stroke-linejoin="round" stroke-linecap="butt" d="m539.40063 65.7791c-30.364746 0 -63.738586 -7.5978966 -90.897644 5.9816284c-29.769836 14.884933 -42.8183 62.91043 -32.29132 94.485565c22.03415 66.09038 149.39197 85.65402 204.51703 43.055115c29.105469 -22.49173 35.714355 -85.42583 8.372742 -110.031494c-32.496338 -29.244568 -84.25586 -28.706032 -127.973755 -28.706032" fill-rule="evenodd"/><path fill="#000000" fill-opacity="0.0" d="m865.9131 66.97556c-26.239685 -5.2456284 -54.173706 -11.273636 -80.13391 -4.784775c-21.582947 5.394745 -41.47693 20.960274 -53.818848 39.46982c-20.439941 30.654243 -2.8554077 83.65913 25.115479 107.64042c33.561157 28.774246 107.039734 20.040146 131.56165 -16.742783c25.060852 -37.591232 3.3244019 -110.145035 -37.07611 -130.36746" fill-rule="evenodd"/><path stroke="#000000" stroke-width="1.0" stroke-linejoin="round" stroke-linecap="butt" d="m865.9131 66.97556c-26.239685 -5.2456284 -54.173706 -11.273636 -80.13391 -4.784775c-21.582947 5.394745 -41.47693 20.960274 -53.818848 39.46982c-20.439941 30.654243 -2.8554077 83.65913 25.115479 107.64042c33.561157 28.774246 107.039734 20.040146 131.56165 -16.742783c25.060852 -37.591232 3.3244019 -110.145035 -37.07611 -130.36746" fill-rule="evenodd"/><path fill="#000000" fill-opacity="0.0" d="m413.82022 429.37106c-30.759033 -30.759033 -79.69174 -43.05774 -123.19159 -43.05774c-16.819458 0 -35.186737 -2.736145 -50.230972 4.78479c-10.366028 5.18219 -21.82605 8.594635 -31.097122 15.548553c-24.056808 18.04425 -30.983429 58.39145 -22.724411 87.3071c18.667923 65.358185 133.15755 88.117645 194.95015 59.800507c24.732971 -11.3341675 43.639038 -39.936707 46.64566 -66.97638c2.4875488 -22.371704 -6.1747437 -52.13385 -26.312347 -62.19159" fill-rule="evenodd"/><path stroke="#000000" stroke-width="1.0" stroke-linejoin="round" stroke-linecap="butt" d="m413.82022 429.37106c-30.759033 -30.759033 -79.69174 -43.05774 -123.19159 -43.05774c-16.819458 0 -35.186737 -2.736145 -50.230972 4.78479c-10.366028 5.18219 -21.82605 8.594635 -31.097122 15.548553c-24.056808 18.04425 -30.983429 58.39145 -22.724411 87.3071c18.667923 65.358185 133.15755 88.117645 194.95015 59.800507c24.732971 -11.3341675 43.639038 -39.936707 46.64566 -66.97638c2.4875488 -22.371704 -6.1747437 -52.13385 -26.312347 -62.19159" fill-rule="evenodd"/><path fill="#000000" fill-opacity="0.0" d="m773.821 424.58505c-33.76294 -22.512726 -82.077515 -38.175568 -119.601074 -22.724396c-19.243835 7.9240723 -38.13916 20.139679 -50.23358 37.07611c-15.08783 21.128265 -17.391846 55.04413 -4.78479 77.74017c15.608032 28.09851 56.364136 38.27295 88.50659 38.27295c18.944214 0 42.248596 4.4293213 56.212585 -8.372681c34.10846 -31.270325 37.50232 -106.017395 4.7821655 -138.73755" fill-rule="evenodd"/><path stroke="#000000" stroke-width="1.0" stroke-linejoin="round" stroke-linecap="butt" d="m773.821 424.58505c-33.76294 -22.512726 -82.077515 -38.175568 -119.601074 -22.724396c-19.243835 7.9240723 -38.13916 20.139679 -50.23358 37.07611c-15.08783 21.128265 -17.391846 55.04413 -4.78479 77.74017c15.608032 28.09851 56.364136 38.27295 88.50659 38.27295c18.944214 0 42.248596 4.4293213 56.212585 -8.372681c34.10846 -31.270325 37.50232 -106.017395 4.7821655 -138.73755" fill-rule="evenodd"/><path fill="#000000" fill-opacity="0.0" d="m182.9895 132.75853l76.53543 0l0 42.015747l-76.53543 0z" fill-rule="evenodd"/><path fill="#000000" d="m193.22388 159.67853l0 -9.671875l1.46875 0l0 1.359375q0.453125 -0.71875 1.203125 -1.140625q0.765625 -0.4375 1.71875 -0.4375q1.078125 0 1.765625 0.453125q0.6875 0.4375 0.96875 1.234375q1.15625 -1.6875 2.984375 -1.6875q1.453125 0 2.21875 0.796875q0.78125 0.796875 0.78125 2.453125l0 6.640625l-1.640625 0l0 -6.09375q0 -0.984375 -0.15625 -1.40625q-0.15625 -0.4375 -0.578125 -0.703125q-0.421875 -0.265625 -0.984375 -0.265625q-1.015625 0 -1.6875 0.6875q-0.671875 0.671875 -0.671875 2.15625l0 5.625l-1.640625 0l0 -6.28125q0 -1.09375 -0.40625 -1.640625q-0.40625 -0.546875 -1.3125 -0.546875q-0.6875 0 -1.28125 0.359375q-0.59375 0.359375 -0.859375 1.0625q-0.25 0.703125 -0.25 2.03125l0 5.015625l-1.640625 0zm21.259552 0l-1.640625 0l0 -10.453125q-0.59375 0.5625 -1.5625 1.140625q-0.953125 0.5625 -1.71875 0.84375l0 -1.59375q1.375 -0.640625 2.40625 -1.5625q1.03125 -0.921875 1.453125 -1.78125l1.0625 0l0 13.40625z" fill-rule="nonzero"/><path fill="#000000" fill-opacity="0.0" d="m497.54068 156.67717l688.91345 0l0 42.015747l-688.91345 0z" fill-rule="evenodd"/><path fill="#000000" d="m507.77505 183.59717l0 -9.671875l1.46875 0l0 1.359375q0.453125 -0.71875 1.203125 -1.140625q0.765625 -0.4375 1.7187805 -0.4375q1.078125 0 1.765625 0.453125q0.6875 0.4375 0.96875 1.234375q1.15625 -1.6875 2.984375 -1.6875q1.453125 0 2.21875 0.796875q0.78125 0.796875 0.78125 2.453125l0 6.640625l-1.640625 0l0 -6.09375q0 -0.984375 -0.15625 -1.40625q-0.15625 -0.4375 -0.578125 -0.703125q-0.421875 -0.265625 -0.984375 -0.265625q-1.015625 0 -1.6875 0.6875q-0.671875 0.671875 -0.671875 2.15625l0 5.625l-1.640625 0l0 -6.28125q0 -1.09375 -0.40625 -1.640625q-0.40625 -0.546875 -1.3125305 -0.546875q-0.6875 0 -1.28125 0.359375q-0.59375 0.359375 -0.859375 1.0625q-0.25 0.703125 -0.25 2.03125l0 5.015625l-1.640625 0zm23.697052 -1.578125l0 1.578125l-8.828125 0q-0.015625 -0.59375 0.1875 -1.140625q0.34375 -0.90625 1.078125 -1.78125q0.75 -0.875 2.15625 -2.015625q2.171875 -1.78125 2.9375 -2.828125q0.765625 -1.046875 0.765625 -1.96875q0 -0.984375 -0.703125 -1.640625q-0.6875 -0.671875 -1.8125 -0.671875q-1.1875 0 -1.90625 0.71875q-0.703125 0.703125 -0.703125 1.953125l-1.6875 -0.171875q0.171875 -1.890625 1.296875 -2.875q1.140625 -0.984375 3.03125 -0.984375q1.921875 0 3.046875 1.0625q1.125 1.0625 1.125 2.640625q0 0.796875 -0.328125 1.578125q-0.328125 0.78125 -1.09375 1.640625q-0.75 0.84375 -2.53125 2.34375q-1.46875 1.234375 -1.890625 1.6875q-0.421875 0.4375 -0.6875 0.875l6.546875 0z" fill-rule="nonzero"/><path fill="#000000" fill-opacity="0.0" d="m792.958 166.24672l688.9133 0l0 42.015747l-688.9133 0z" fill-rule="evenodd"/><path fill="#000000" d="m803.1924 193.16672l0 -9.671875l1.46875 0l0 1.359375q0.453125 -0.71875 1.203125 -1.140625q0.765625 -0.4375 1.71875 -0.4375q1.078125 0 1.765625 0.453125q0.6875 0.4375 0.96875 1.234375q1.15625 -1.6875 2.984375 -1.6875q1.453125 0 2.21875 0.796875q0.78125 0.796875 0.78125 2.453125l0 6.640625l-1.640625 0l0 -6.09375q0 -0.984375 -0.15625 -1.40625q-0.15625 -0.4375 -0.578125 -0.703125q-0.421875 -0.265625 -0.984375 -0.265625q-1.015625 0 -1.6875 0.6875q-0.671875 0.671875 -0.671875 2.15625l0 5.625l-1.640625 0l0 -6.28125q0 -1.09375 -0.40625 -1.640625q-0.40625 -0.546875 -1.3125 -0.546875q-0.6875 0 -1.28125 0.359375q-0.59375 0.359375 -0.859375 1.0625q-0.25 0.703125 -0.25 2.03125l0 5.015625l-1.640625 0zm15.0876465 -3.53125l1.640625 -0.21875q0.28125 1.40625 0.953125 2.015625q0.6875 0.609375 1.65625 0.609375q1.15625 0 1.953125 -0.796875q0.796875 -0.796875 0.796875 -1.984375q0 -1.125 -0.734375 -1.859375q-0.734375 -0.734375 -1.875 -0.734375q-0.46875 0 -1.15625 0.171875l0.1875 -1.4375q0.15625 0.015625 0.265625 0.015625q1.046875 0 1.875 -0.546875q0.84375 -0.546875 0.84375 -1.671875q0 -0.90625 -0.609375 -1.5q-0.609375 -0.59375 -1.578125 -0.59375q-0.953125 0 -1.59375 0.609375q-0.640625 0.59375 -0.8125 1.796875l-1.640625 -0.296875q0.296875 -1.640625 1.359375 -2.546875q1.0625 -0.90625 2.65625 -0.90625q1.09375 0 2.0 0.46875q0.921875 0.46875 1.40625 1.28125q0.5 0.8125 0.5 1.71875q0 0.859375 -0.46875 1.578125q-0.46875 0.703125 -1.375 1.125q1.1875 0.28125 1.84375 1.140625q0.65625 0.859375 0.65625 2.15625q0 1.734375 -1.28125 2.953125q-1.265625 1.21875 -3.21875 1.21875q-1.765625 0 -2.921875 -1.046875q-1.15625 -1.046875 -1.328125 -2.71875z" fill-rule="nonzero"/><path fill="#000000" fill-opacity="0.0" d="m264.32022 487.97375l688.9133 0l0 42.015747l-688.9133 0z" fill-rule="evenodd"/><path fill="#000000" d="m276.33585 514.89374l-2.96875 -9.671875l1.703125 0l1.53125 5.578125l0.578125 2.078125q0.046875 -0.15625 0.5 -2.0l1.546875 -5.65625l1.6875 0l1.4375 5.609375l0.484375 1.84375l0.5625 -1.859375l1.65625 -5.59375l1.59375 0l-3.03125 9.671875l-1.703125 0l-1.53125 -5.796875l-0.375 -1.640625l-1.953125 7.4375l-1.71875 0zm17.41043 0l-1.640625 0l0 -10.453125q-0.59375 0.5625 -1.5625 1.140625q-0.953125 0.5625 -1.71875 0.84375l0 -1.59375q1.375 -0.640625 2.40625 -1.5625q1.03125 -0.921875 1.453125 -1.78125l1.0625 0l0 13.40625z" fill-rule="nonzero"/><path fill="#000000" fill-opacity="0.0" d="m666.17847 485.58267l688.91345 0l0 42.015778l-688.91345 0z" fill-rule="evenodd"/><path fill="#000000" d="m678.1941 512.5027l-2.96875 -9.671875l1.703125 0l1.53125 5.578125l0.578125 2.078125q0.046875 -0.15625 0.5 -2.0l1.546875 -5.65625l1.6875 0l1.4375 5.609375l0.484375 1.84375l0.5625 -1.859375l1.65625 -5.59375l1.59375 0l-3.03125 9.671875l-1.703125 0l-1.53125 -5.796875l-0.375 -1.640625l-1.953125 7.4375l-1.71875 0zm19.847961 -1.578125l0 1.578125l-8.828125 0q-0.015625 -0.59375 0.1875 -1.140625q0.34375 -0.90625 1.078125 -1.78125q0.75 -0.875 2.15625 -2.015625q2.171875 -1.78125 2.9375 -2.828125q0.765625 -1.046875 0.765625 -1.96875q0 -0.984375 -0.703125 -1.640625q-0.6875 -0.671875 -1.8125 -0.671875q-1.1875 0 -1.90625 0.71875q-0.703125 0.703125 -0.703125 1.953125l-1.6875 -0.171875q0.171875 -1.890625 1.296875 -2.875q1.140625 -0.984375 3.03125 -0.984375q1.921875 0 3.046875 1.0625q1.125 1.0625 1.125 2.640625q0 0.796875 -0.328125 1.578125q-0.328125 0.78125 -1.09375 1.640625q-0.75 0.84375 -2.53125 2.34375q-1.46875 1.234375 -1.890625 1.6875q-0.421875 0.4375 -0.6875 0.875l6.546875 0z" fill-rule="nonzero"/><path fill="#000000" fill-opacity="0.0" d="m917.34045 37.077286c-53.09973 -16.343212 -110.75525 -9.190451 -166.24408 -11.96063c-111.90552 -5.5866795 -224.03656 -5.979002 -336.0814 -5.979002c-66.97638 0 -134.36298 7.4016476 -200.92912 0c-23.777176 -2.6438408 -47.83745 -1.1968517 -71.761154 -1.1968517c-13.161789 0 -28.514702 -6.1021404 -39.4672 1.1968517c-8.399292 5.5974827 -3.945938 19.841618 -4.784775 29.90026c-1.6900711 20.266026 -0.4436798 40.674953 -1.1968536 60.99738c-1.4767914 39.847626 -2.3910751 79.72606 -2.3910751 119.60104c0 19.933517 -3.9043274 40.253128 0 59.80052c1.8027954 9.025848 1.864418 19.804047 8.372704 26.312347c10.43409 10.434082 29.495949 1.1942139 44.251976 1.1942139c42.458008 0 42.458008 0 84.916 0c68.974884 0 137.93588 2.3937073 206.91077 2.3937073c109.23624 0 218.47244 0 327.70865 0c35.082275 0 70.16449 0 105.246704 0c17.546143 0 38.586914 9.329559 52.624695 -1.1968384c11.500305 -8.623657 11.06134 -26.671936 14.354309 -40.664062c8.351685 -35.48654 10.763794 -72.38118 10.763794 -108.837265c0 -34.39949 -1.6264038 -69.126785 -8.372681 -102.85826c-2.546753 -12.733696 -2.7782593 -27.893723 -11.960632 -37.07612c-6.934082 -6.9340477 -16.506104 13.157478 -26.312317 13.157478" fill-rule="evenodd"/><path stroke="#000000" stroke-width="1.0" stroke-linejoin="round" stroke-linecap="butt" d="m917.34045 37.077286c-53.09973 -16.343212 -110.75525 -9.190451 -166.24408 -11.96063c-111.90552 -5.5866795 -224.03656 -5.979002 -336.0814 -5.979002c-66.97638 0 -134.36298 7.4016476 -200.92912 0c-23.777176 -2.6438408 -47.83745 -1.1968517 -71.761154 -1.1968517c-13.161789 0 -28.514702 -6.1021404 -39.4672 1.1968517c-8.399292 5.5974827 -3.945938 19.841618 -4.784775 29.90026c-1.6900711 20.266026 -0.4436798 40.674953 -1.1968536 60.99738c-1.4767914 39.847626 -2.3910751 79.72606 -2.3910751 119.60104c0 19.933517 -3.9043274 40.253128 0 59.80052c1.8027954 9.025848 1.864418 19.804047 8.372704 26.312347c10.43409 10.434082 29.495949 1.1942139 44.251976 1.1942139c42.458008 0 42.458008 0 84.916 0c68.974884 0 137.93588 2.3937073 206.91077 2.3937073c109.23624 0 218.47244 0 327.70865 0c35.082275 0 70.16449 0 105.246704 0c17.546143 0 38.586914 9.329559 52.624695 -1.1968384c11.500305 -8.623657 11.06134 -26.671936 14.354309 -40.664062c8.351685 -35.48654 10.763794 -72.38118 10.763794 -108.837265c0 -34.39949 -1.6264038 -69.126785 -8.372681 -102.85826c-2.546753 -12.733696 -2.7782593 -27.893723 -11.960632 -37.07612c-6.934082 -6.9340477 -16.506104 13.157478 -26.312317 13.157478" fill-rule="evenodd"/><path fill="#000000" fill-opacity="0.0" d="m812.09094 367.1753c-81.33685 0 -162.64734 -3.5879211 -243.98425 -3.5879211c-74.96051 0 -150.22986 3.5164185 -224.853 -3.5879211c-54.912598 -5.2278748 -109.88898 -11.960632 -165.04987 -11.960632c-15.153961 0 -30.292236 -1.1942444 -45.446198 -1.1942444c-7.1767273 0 -17.547234 -5.9700317 -21.530182 0c-10.843559 16.253448 -1.1942215 39.065063 -1.1942215 58.60367c0 45.46457 1.9039764 90.91312 3.5879211 136.3465c1.4077377 37.98108 5.7867203 75.80072 9.566933 113.619385c1.1506119 11.51123 -9.15152 29.513733 1.196846 34.68506c11.412056 5.702881 25.515312 0 38.272972 0c20.331573 0 40.663162 0 60.99475 0c86.112854 0 172.22571 0 258.3386 0c83.322845 0 166.64566 0 249.96848 0c23.534973 0 47.029358 -2.3911133 70.56433 -2.3911133c15.149597 0 31.900085 6.778137 45.44879 0c8.323914 -4.1641846 4.78479 -18.201782 4.78479 -27.509155c0 -27.296387 -5.081238 -54.40326 -9.56958 -81.328064c-8.177002 -49.053223 -19.49176 -97.5564 -31.097107 -145.91342c-5.893799 -24.558258 -15.545898 -48.89923 -15.545898 -74.15485" fill-rule="evenodd"/><path stroke="#000000" stroke-width="1.0" stroke-linejoin="round" stroke-linecap="butt" d="m812.09094 367.1753c-81.33685 0 -162.64734 -3.5879211 -243.98425 -3.5879211c-74.96051 0 -150.22986 3.5164185 -224.853 -3.5879211c-54.912598 -5.2278748 -109.88898 -11.960632 -165.04987 -11.960632c-15.153961 0 -30.292236 -1.1942444 -45.446198 -1.1942444c-7.1767273 0 -17.547234 -5.9700317 -21.530182 0c-10.843559 16.253448 -1.1942215 39.065063 -1.1942215 58.60367c0 45.46457 1.9039764 90.91312 3.5879211 136.3465c1.4077377 37.98108 5.7867203 75.80072 9.566933 113.619385c1.1506119 11.51123 -9.15152 29.513733 1.196846 34.68506c11.412056 5.702881 25.515312 0 38.272972 0c20.331573 0 40.663162 0 60.99475 0c86.112854 0 172.22571 0 258.3386 0c83.322845 0 166.64566 0 249.96848 0c23.534973 0 47.029358 -2.3911133 70.56433 -2.3911133c15.149597 0 31.900085 6.778137 45.44879 0c8.323914 -4.1641846 4.78479 -18.201782 4.78479 -27.509155c0 -27.296387 -5.081238 -54.40326 -9.56958 -81.328064c-8.177002 -49.053223 -19.49176 -97.5564 -31.097107 -145.91342c-5.893799 -24.558258 -15.545898 -48.89923 -15.545898 -74.15485" fill-rule="evenodd"/><path fill="#000000" fill-opacity="0.0" d="m312.1601 282.25986l688.9134 0l0 42.015747l-688.9134 0z" fill-rule="evenodd"/><path fill="#000000" d="m332.12885 304.49234l1.765625 0.453125q-0.5625 2.171875 -2.0 3.328125q-1.4375 1.140625 -3.53125 1.140625q-2.15625 0 -3.515625 -0.875q-1.34375 -0.890625 -2.0625 -2.546875q-0.703125 -1.671875 -0.703125 -3.59375q0 -2.078125 0.796875 -3.625q0.796875 -1.5625 2.265625 -2.359375q1.484375 -0.8125 3.25 -0.8125q2.0 0 3.359375 1.015625q1.375 1.015625 1.90625 2.875l-1.734375 0.40625q-0.46875 -1.453125 -1.359375 -2.109375q-0.875 -0.671875 -2.203125 -0.671875q-1.546875 0 -2.578125 0.734375q-1.03125 0.734375 -1.453125 1.984375q-0.421875 1.234375 -0.421875 2.5625q0 1.703125 0.5 2.96875q0.5 1.265625 1.546875 1.90625q1.046875 0.625 2.265625 0.625q1.484375 0 2.515625 -0.859375q1.03125 -0.859375 1.390625 -2.546875zm3.4104614 -1.8125q0 -3.328125 1.78125 -5.203125q1.78125 -1.890625 4.609375 -1.890625q1.84375 0 3.328125 0.890625q1.484375 0.875 2.265625 2.46875q0.78125 1.578125 0.78125 3.578125q0 2.03125 -0.828125 3.640625q-0.8125 1.59375 -2.3125 2.421875q-1.5 0.828125 -3.25 0.828125q-1.875 0 -3.359375 -0.90625q-1.484375 -0.921875 -2.25 -2.5q-0.765625 -1.578125 -0.765625 -3.328125zm1.8125 0.015625q0 2.421875 1.296875 3.8125q1.296875 1.390625 3.265625 1.390625q2.0 0 3.28125 -1.40625q1.28125 -1.40625 1.28125 -3.984375q0 -1.625 -0.546875 -2.84375q-0.546875 -1.21875 -1.609375 -1.875q-1.0625 -0.671875 -2.375 -0.671875q-1.890625 0 -3.25 1.296875q-1.34375 1.28125 -1.34375 4.28125zm13.214539 6.484375l0 -13.359375l1.8125 0l7.015625 10.484375l0 -10.484375l1.6875 0l0 13.359375l-1.8125 0l-7.015625 -10.5l0 10.5l-1.6875 0zm16.894836 0l0 -11.78125l-4.40625 0l0 -1.578125l10.578125 0l0 1.578125l-4.40625 0l0 11.78125l-1.765625 0zm8.020966 0l0 -13.359375l5.921875 0q1.78125 0 2.703125 0.359375q0.9375 0.359375 1.484375 1.28125q0.5625 0.90625 0.5625 2.015625q0 1.40625 -0.921875 2.390625q-0.921875 0.96875 -2.84375 1.234375q0.703125 0.34375 1.078125 0.671875q0.765625 0.703125 1.453125 1.765625l2.328125 3.640625l-2.21875 0l-1.765625 -2.78125q-0.78125 -1.203125 -1.28125 -1.828125q-0.5 -0.640625 -0.90625 -0.890625q-0.390625 -0.265625 -0.796875 -0.359375q-0.296875 -0.078125 -0.984375 -0.078125l-2.046875 0l0 5.9375l-1.765625 0zm1.765625 -7.453125l3.796875 0q1.21875 0 1.890625 -0.25q0.6875 -0.265625 1.046875 -0.8125q0.359375 -0.546875 0.359375 -1.1875q0 -0.953125 -0.6875 -1.5625q-0.6875 -0.609375 -2.1875 -0.609375l-4.21875 0l0 4.421875zm11.144836 0.953125q0 -3.328125 1.78125 -5.203125q1.78125 -1.890625 4.609375 -1.890625q1.84375 0 3.328125 0.890625q1.484375 0.875 2.265625 2.46875q0.78125 1.578125 0.78125 3.578125q0 2.03125 -0.828125 3.640625q-0.8125 1.59375 -2.3125 2.421875q-1.5 0.828125 -3.25 0.828125q-1.875 0 -3.359375 -0.90625q-1.484375 -0.921875 -2.25 -2.5q-0.765625 -1.578125 -0.765625 -3.328125zm1.8125 0.015625q0 2.421875 1.296875 3.8125q1.296875 1.390625 3.265625 1.390625q2.0 0 3.28125 -1.40625q1.28125 -1.40625 1.28125 -3.984375q0 -1.625 -0.546875 -2.84375q-0.546875 -1.21875 -1.609375 -1.875q-1.0625 -0.671875 -2.375 -0.671875q-1.890625 0 -3.25 1.296875q-1.34375 1.28125 -1.34375 4.28125zm13.152039 6.484375l0 -13.359375l1.78125 0l0 11.78125l6.5625 0l0 1.578125l-8.34375 0zm14.944458 0l0 -13.359375l5.046875 0q1.328125 0 2.03125 0.125q0.96875 0.171875 1.640625 0.640625q0.671875 0.453125 1.078125 1.28125q0.40625 0.828125 0.40625 1.828125q0 1.703125 -1.09375 2.890625q-1.078125 1.171875 -3.921875 1.171875l-3.421875 0l0 5.421875l-1.765625 0zm1.765625 -7.0l3.453125 0q1.71875 0 2.4375 -0.640625q0.71875 -0.640625 0.71875 -1.796875q0 -0.84375 -0.421875 -1.4375q-0.421875 -0.59375 -1.125 -0.78125q-0.4375 -0.125 -1.640625 -0.125l-3.421875 0l0 4.78125zm10.599823 7.0l0 -13.359375l1.78125 0l0 11.78125l6.5625 0l0 1.578125l-8.34375 0zm8.985077 0l5.125 -13.359375l1.90625 0l5.46875 13.359375l-2.015625 0l-1.546875 -4.046875l-5.59375 0l-1.46875 4.046875l-1.875 0zm3.859375 -5.484375l4.53125 0l-1.40625 -3.703125q-0.625 -1.6875 -0.9375 -2.765625q-0.265625 1.28125 -0.71875 2.546875l-1.46875 3.921875zm10.037323 5.484375l0 -13.359375l1.8125 0l7.015625 10.484375l0 -10.484375l1.6875 0l0 13.359375l-1.8125 0l-7.015625 -10.5l0 10.5l-1.6875 0zm13.519836 0l0 -13.359375l9.65625 0l0 1.578125l-7.875 0l0 4.09375l7.375 0l0 1.5625l-7.375 0l0 4.546875l8.1875 0l0 1.578125l-9.96875 0z" fill-rule="nonzero"/><path fill="#000000" fill-opacity="0.0" d="m291.82678 627.3123l688.9134 0l0 42.015747l-688.9134 0z" fill-rule="evenodd"/><path fill="#000000" d="m302.26428 654.23236l0 -13.359375l4.609375 0q1.546875 0 2.375 0.203125q1.140625 0.25 1.953125 0.953125q1.0625 0.890625 1.578125 2.28125q0.53125 1.390625 0.53125 3.171875q0 1.515625 -0.359375 2.703125q-0.359375 1.171875 -0.921875 1.9375q-0.546875 0.765625 -1.203125 1.21875q-0.65625 0.4375 -1.59375 0.671875q-0.9375 0.21875 -2.140625 0.21875l-4.828125 0zm1.765625 -1.578125l2.859375 0q1.3125 0 2.0625 -0.234375q0.75 -0.25 1.203125 -0.703125q0.625 -0.625 0.96875 -1.6875q0.359375 -1.0625 0.359375 -2.578125q0 -2.09375 -0.6875 -3.21875q-0.6875 -1.125 -1.671875 -1.5q-0.703125 -0.28125 -2.28125 -0.28125l-2.8125 0l0 10.203125zm10.238556 1.578125l5.125 -13.359375l1.90625 0l5.46875 13.359375l-2.015625 0l-1.546875 -4.046875l-5.59375 0l-1.46875 4.046875l-1.875 0zm3.859375 -5.484375l4.53125 0l-1.40625 -3.703125q-0.625 -1.6875 -0.9375 -2.765625q-0.265625 1.28125 -0.71875 2.546875l-1.46875 3.921875zm12.0737915 5.484375l0 -11.78125l-4.40625 0l0 -1.578125l10.578125 0l0 1.578125l-4.40625 0l0 11.78125l-1.765625 0zm5.135559 0l5.125 -13.359375l1.90625 0l5.46875 13.359375l-2.015625 0l-1.546875 -4.046875l-5.59375 0l-1.46875 4.046875l-1.875 0zm3.859375 -5.484375l4.53125 0l-1.40625 -3.703125q-0.625 -1.6875 -0.9375 -2.765625q-0.265625 1.28125 -0.71875 2.546875l-1.46875 3.921875zm14.206299 5.484375l0 -13.359375l5.046875 0q1.328125 0 2.03125 0.125q0.96875 0.171875 1.640625 0.640625q0.671875 0.453125 1.078125 1.28125q0.40625 0.828125 0.40625 1.828125q0 1.703125 -1.09375 2.890625q-1.078125 1.171875 -3.921875 1.171875l-3.421875 0l0 5.421875l-1.765625 0zm1.765625 -7.0l3.453125 0q1.71875 0 2.4375 -0.640625q0.71875 -0.640625 0.71875 -1.796875q0 -0.84375 -0.421875 -1.4375q-0.421875 -0.59375 -1.125 -0.78125q-0.4375 -0.125 -1.640625 -0.125l-3.421875 0l0 4.78125zm10.599823 7.0l0 -13.359375l1.78125 0l0 11.78125l6.5625 0l0 1.578125l-8.34375 0zm8.985077 0l5.125 -13.359375l1.90625 0l5.46875 13.359375l-2.015625 0l-1.546875 -4.046875l-5.59375 0l-1.46875 4.046875l-1.875 0zm3.859375 -5.484375l4.53125 0l-1.40625 -3.703125q-0.625 -1.6875 -0.9375 -2.765625q-0.265625 1.28125 -0.71875 2.546875l-1.46875 3.921875zm10.037323 5.484375l0 -13.359375l1.8125 0l7.015625 10.484375l0 -10.484375l1.6875 0l0 13.359375l-1.8125 0l-7.015625 -10.5l0 10.5l-1.6875 0zm13.519836 0l0 -13.359375l9.65625 0l0 1.578125l-7.875 0l0 4.09375l7.375 0l0 1.5625l-7.375 0l0 4.546875l8.1875 0l0 1.578125l-9.96875 0z" fill-rule="nonzero"/><path fill="#cfe2f3" d="m285.84778 465.4042l25.716522 -42.015747l25.716553 42.015747z" fill-rule="evenodd"/><path stroke="#000000" stroke-width="1.0" stroke-linejoin="round" stroke-linecap="butt" d="m285.84778 465.4042l25.716522 -42.015747l25.716553 42.015747z" fill-rule="evenodd"/><path fill="#cfe2f3" d="m673.3543 465.39896l25.716553 -33.637787l25.716553 33.637787z" fill-rule="evenodd"/><path stroke="#000000" stroke-width="1.0" stroke-linejoin="round" stroke-linecap="butt" d="m673.3543 465.39896l25.716553 -33.637787l25.716553 33.637787z" fill-rule="evenodd"/><path fill="#cfe2f3" d="m209.30183 82.52493l51.43306 0l0 33.637794l-51.43306 0z" fill-rule="evenodd"/><path stroke="#000000" stroke-width="1.0" stroke-linejoin="round" stroke-linecap="butt" d="m209.30183 82.52493l51.43306 0l0 33.637794l-51.43306 0z" fill-rule="evenodd"/><path fill="#cfe2f3" d="m495.42914 99.120735l51.433044 0l0 33.637794l-51.433044 0z" fill-rule="evenodd"/><path stroke="#000000" stroke-width="1.0" stroke-linejoin="round" stroke-linecap="butt" d="m495.42914 99.120735l51.433044 0l0 33.637794l-51.433044 0z" fill-rule="evenodd"/><path fill="#cfe2f3" d="m785.51447 99.120735l51.433044 0l0 33.637794l-51.433044 0z" fill-rule="evenodd"/><path stroke="#000000" stroke-width="1.0" stroke-linejoin="round" stroke-linecap="butt" d="m785.51447 99.120735l51.433044 0l0 33.637794l-51.433044 0z" fill-rule="evenodd"/><path fill="#000000" fill-opacity="0.0" d="m338.47244 429.3701l688.91345 0l0 42.015747l-688.91345 0z" fill-rule="evenodd"/><path fill="#000000" d="m352.3162 456.29007l0 -11.78125l-4.40625 0l0 -1.578125l10.578125 0l0 1.578125l-4.40625 0l0 11.78125l-1.765625 0zm7.1212463 -6.5q0 -3.328125 1.78125 -5.203125q1.78125 -1.890625 4.609375 -1.890625q1.84375 0 3.328125 0.890625q1.484375 0.875 2.265625 2.46875q0.78125 1.578125 0.78125 3.578125q0 2.03125 -0.828125 3.640625q-0.8125 1.59375 -2.3125 2.421875q-1.5 0.828125 -3.25 0.828125q-1.875 0 -3.359375 -0.90625q-1.484375 -0.921875 -2.25 -2.5q-0.765625 -1.578125 -0.765625 -3.328125zm1.8125 0.015625q0 2.421875 1.296875 3.8125q1.296875 1.390625 3.265625 1.390625q2.0 0 3.28125 -1.40625q1.28125 -1.40625 1.28125 -3.984375q0 -1.625 -0.546875 -2.84375q-0.546875 -1.21875 -1.609375 -1.875q-1.0625 -0.671875 -2.375 -0.671875q-1.890625 0 -3.25 1.296875q-1.34375 1.28125 -1.34375 4.28125zm13.183289 6.484375l0 -13.359375l2.65625 0l3.15625 9.453125q0.4375 1.328125 0.640625 1.984375q0.234375 -0.734375 0.703125 -2.140625l3.203125 -9.296875l2.375 0l0 13.359375l-1.703125 0l0 -11.171875l-3.875 11.171875l-1.59375 0l-3.859375 -11.375l0 11.375l-1.703125 0zm25.118927 -4.6875l1.765625 0.453125q-0.5625 2.171875 -2.0 3.328125q-1.4375 1.140625 -3.53125 1.140625q-2.15625 0 -3.515625 -0.875q-1.34375 -0.890625 -2.0625 -2.546875q-0.703125 -1.671875 -0.703125 -3.59375q0 -2.078125 0.796875 -3.625q0.796875 -1.5625 2.265625 -2.359375q1.484375 -0.8125 3.25 -0.8125q2.0 0 3.359375 1.015625q1.375 1.015625 1.90625 2.875l-1.734375 0.40625q-0.46875 -1.453125 -1.359375 -2.109375q-0.875 -0.671875 -2.203125 -0.671875q-1.546875 0 -2.578125 0.734375q-1.03125 0.734375 -1.453125 1.984375q-0.421875 1.234375 -0.421875 2.5625q0 1.703125 0.5 2.96875q0.5 1.265625 1.546875 1.90625q1.046875 0.625 2.265625 0.625q1.484375 0 2.515625 -0.859375q1.03125 -0.859375 1.390625 -2.546875zm2.4729614 4.6875l5.125 -13.359375l1.90625 0l5.46875 13.359375l-2.015625 0l-1.546875 -4.046875l-5.59375 0l-1.46875 4.046875l-1.875 0zm3.859375 -5.484375l4.53125 0l-1.40625 -3.703125q-0.625 -1.6875 -0.9375 -2.765625q-0.265625 1.28125 -0.71875 2.546875l-1.46875 3.921875zm12.073761 5.484375l0 -11.78125l-4.40625 0l0 -1.578125l10.578125 0l0 1.578125l-4.40625 0l0 11.78125l-1.765625 0z" fill-rule="nonzero"/><path fill="#000000" fill-opacity="0.0" d="m730.7638 450.89764l688.9133 0l0 42.015747l-688.9133 0z" fill-rule="evenodd"/><path fill="#000000" d="m743.5294 477.81763l-3.53125 -13.359375l1.8125 0l2.03125 8.765625q0.328125 1.375 0.5625 2.71875q0.5 -2.140625 0.59375 -2.46875l2.546875 -9.015625l2.125 0l1.921875 6.765625q0.71875 2.515625 1.03125 4.71875q0.265625 -1.265625 0.671875 -2.890625l2.09375 -8.59375l1.78125 0l-3.671875 13.359375l-1.703125 0l-2.8125 -10.171875q-0.359375 -1.28125 -0.421875 -1.5625q-0.203125 0.90625 -0.390625 1.5625l-2.828125 10.171875l-1.8125 0zm15.311768 0l0 -13.359375l9.65625 0l0 1.578125l-7.875 0l0 4.09375l7.375 0l0 1.5625l-7.375 0l0 4.546875l8.1875 0l0 1.578125l-9.96875 0zm12.3342285 0l0 -13.359375l5.015625 0q1.53125 0 2.453125 0.40625q0.921875 0.40625 1.4375 1.25q0.53125 0.84375 0.53125 1.765625q0 0.859375 -0.46875 1.625q-0.453125 0.75 -1.390625 1.203125q1.203125 0.359375 1.859375 1.21875q0.65625 0.859375 0.65625 2.015625q0 0.9375 -0.40625 1.75q-0.390625 0.796875 -0.984375 1.234375q-0.578125 0.4375 -1.453125 0.671875q-0.875 0.21875 -2.15625 0.21875l-5.09375 0zm1.78125 -7.75l2.875 0q1.1875 0 1.6875 -0.140625q0.671875 -0.203125 1.015625 -0.671875q0.34375 -0.46875 0.34375 -1.171875q0 -0.65625 -0.328125 -1.15625q-0.3125 -0.515625 -0.90625 -0.703125q-0.59375 -0.1875 -2.03125 -0.1875l-2.65625 0l0 4.03125zm0 6.171875l3.3125 0q0.859375 0 1.203125 -0.0625q0.609375 -0.109375 1.015625 -0.359375q0.421875 -0.265625 0.6875 -0.75q0.265625 -0.484375 0.265625 -1.125q0 -0.75 -0.390625 -1.296875q-0.375 -0.546875 -1.0625 -0.765625q-0.671875 -0.234375 -1.953125 -0.234375l-3.078125 0l0 4.59375zm15.329956 -2.71875l1.65625 -0.140625q0.125 1.0 0.546875 1.640625q0.4375 0.640625 1.34375 1.046875q0.921875 0.390625 2.0625 0.390625q1.0 0 1.78125 -0.296875q0.78125 -0.296875 1.15625 -0.8125q0.375 -0.53125 0.375 -1.15625q0 -0.625 -0.375 -1.09375q-0.359375 -0.46875 -1.1875 -0.796875q-0.546875 -0.203125 -2.390625 -0.640625q-1.828125 -0.453125 -2.5625 -0.84375q-0.96875 -0.5 -1.4375 -1.234375q-0.46875 -0.75 -0.46875 -1.671875q0 -1.0 0.578125 -1.875q0.578125 -0.890625 1.671875 -1.34375q1.109375 -0.453125 2.453125 -0.453125q1.484375 0 2.609375 0.484375q1.140625 0.46875 1.75 1.40625q0.609375 0.921875 0.65625 2.09375l-1.6875 0.125q-0.140625 -1.265625 -0.9375 -1.90625q-0.78125 -0.65625 -2.3125 -0.65625q-1.609375 0 -2.34375 0.59375q-0.734375 0.59375 -0.734375 1.421875q0 0.71875 0.53125 1.171875q0.5 0.46875 2.65625 0.96875q2.15625 0.484375 2.953125 0.84375q1.171875 0.53125 1.71875 1.359375q0.5625 0.828125 0.5625 1.90625q0 1.0625 -0.609375 2.015625q-0.609375 0.9375 -1.75 1.46875q-1.140625 0.515625 -2.578125 0.515625q-1.8125 0 -3.046875 -0.53125q-1.21875 -0.53125 -1.921875 -1.59375q-0.6875 -1.0625 -0.71875 -2.40625zm13.0686035 4.296875l0 -13.359375l9.65625 0l0 1.578125l-7.875 0l0 4.09375l7.375 0l0 1.5625l-7.375 0l0 4.546875l8.1875 0l0 1.578125l-9.96875 0zm12.4435425 0l0 -13.359375l5.921875 0q1.78125 0 2.703125 0.359375q0.9375 0.359375 1.484375 1.28125q0.5625 0.90625 0.5625 2.015625q0 1.40625 -0.921875 2.390625q-0.921875 0.96875 -2.84375 1.234375q0.703125 0.34375 1.078125 0.671875q0.765625 0.703125 1.453125 1.765625l2.328125 3.640625l-2.21875 0l-1.765625 -2.78125q-0.78125 -1.203125 -1.28125 -1.828125q-0.5 -0.640625 -0.90625 -0.890625q-0.390625 -0.265625 -0.796875 -0.359375q-0.296875 -0.078125 -0.984375 -0.078125l-2.046875 0l0 5.9375l-1.765625 0zm1.765625 -7.453125l3.796875 0q1.21875 0 1.890625 -0.25q0.6875 -0.265625 1.046875 -0.8125q0.359375 -0.546875 0.359375 -1.1875q0 -0.953125 -0.6875 -1.5625q-0.6875 -0.609375 -2.1875 -0.609375l-4.21875 0l0 4.421875zm15.151367 7.453125l-5.171875 -13.359375l1.921875 0l3.46875 9.703125q0.421875 1.171875 0.703125 2.1875q0.3125 -1.09375 0.71875 -2.1875l3.609375 -9.703125l1.796875 0l-5.234375 13.359375l-1.8125 0zm8.6622925 0l0 -13.359375l9.65625 0l0 1.578125l-7.875 0l0 4.09375l7.375 0l0 1.5625l-7.375 0l0 4.546875l8.1875 0l0 1.578125l-9.96875 0zm12.4436035 0l0 -13.359375l5.921875 0q1.78125 0 2.703125 0.359375q0.9375 0.359375 1.484375 1.28125q0.5625 0.90625 0.5625 2.015625q0 1.40625 -0.921875 2.390625q-0.921875 0.96875 -2.84375 1.234375q0.703125 0.34375 1.078125 0.671875q0.765625 0.703125 1.453125 1.765625l2.328125 3.640625l-2.21875 0l-1.765625 -2.78125q-0.78125 -1.203125 -1.28125 -1.828125q-0.5 -0.640625 -0.90625 -0.890625q-0.390625 -0.265625 -0.796875 -0.359375q-0.296875 -0.078125 -0.984375 -0.078125l-2.046875 0l0 5.9375l-1.765625 0zm1.765625 -7.453125l3.796875 0q1.21875 0 1.890625 -0.25q0.6875 -0.265625 1.046875 -0.8125q0.359375 -0.546875 0.359375 -1.1875q0 -0.953125 -0.6875 -1.5625q-0.6875 -0.609375 -2.1875 -0.609375l-4.21875 0l0 4.421875z" fill-rule="nonzero"/></g></svg>