<svg version="1.1" viewBox="0.0 0.0 960.0 720.0" fill="none" stroke="none" stroke-linecap="square" stroke-miterlimit="10" xmlns:xlink="http://www.w3.org/1999/xlink" xmlns="http://www.w3.org/2000/svg"><clipPath id="p.0"><path d="m0 0l960.0 0l0 720.0l-960.0 0l0 -720.0z" clip-rule="nonzero"/></clipPath><g clip-path="url(#p.0)"><path fill="#000000" fill-opacity="0.0" d="m0 0l960.0 0l0 720.0l-960.0 0z" fill-rule="evenodd"/><path fill="#cfe2f3" d="m91.178474 116.33071l216.94489 0l0 138.33072l-216.94489 0z" fill-rule="evenodd"/><path stroke="#000000" stroke-width="1.0" stroke-linejoin="round" stroke-linecap="butt" d="m91.178474 116.33071l216.94489 0l0 138.33072l-216.94489 0z" fill-rule="evenodd"/><path fill="#000000" d="m105.428474 192.41606l-5.171875 -13.359375l1.921875 0l3.46875 9.703125q0.421875 1.171875 0.703125 2.1875q0.3125 -1.09375 0.71875 -2.1875l3.609375 -9.703125l1.796875 0l-5.234375 13.359375l-1.8125 0zm8.584198 0l0 -13.359375l2.65625 0l3.15625 9.453125q0.4375 1.328125 0.640625 1.984375q0.234375 -0.734375 0.703125 -2.140625l3.203125 -9.296875l2.375 0l0 13.359375l-1.703125 0l0 -11.171875l-3.875 11.171875l-1.59375 0l-3.859375 -11.375l0 11.375l-1.703125 0zm21.10331 0l-1.640625 0l0 -10.453125q-0.59375 0.5625 -1.5625 1.140625q-0.953125 0.5625 -1.71875 0.84375l0 -1.59375q1.375 -0.640625 2.40625 -1.5625q1.03125 -0.921875 1.453125 -1.78125l1.0625 0l0 13.40625z" fill-rule="nonzero"/><path fill="#cfe2f3" d="m91.178474 302.11285l216.94489 0l0 138.33072l-216.94489 0z" fill-rule="evenodd"/><path stroke="#000000" stroke-width="1.0" stroke-linejoin="round" stroke-linecap="butt" d="m91.178474 302.11285l216.94489 0l0 138.33072l-216.94489 0z" fill-rule="evenodd"/><path fill="#000000" d="m105.428474 378.1982l-5.171875 -13.359375l1.921875 0l3.46875 9.703125q0.421875 1.171875 0.703125 2.1875q0.3125 -1.09375 0.71875 -2.1875l3.609375 -9.703125l1.796875 0l-5.234375 13.359375l-1.8125 0zm8.584198 0l0 -13.359375l2.65625 0l3.15625 9.453125q0.4375 1.328125 0.640625 1.984375q0.234375 -0.734375 0.703125 -2.140625l3.203125 -9.296875l2.375 0l0 13.359375l-1.703125 0l0 -11.171875l-3.875 11.171875l-1.59375 0l-3.859375 -11.375l0 11.375l-1.703125 0zm23.54081 -1.578125l0 1.578125l-8.828125 0q-0.015625 -0.59375 0.1875 -1.140625q0.34375 -0.90625 1.078125 -1.78125q0.75 -0.875 2.15625 -2.015625q2.171875 -1.78125 2.9375 -2.828125q0.765625 -1.046875 0.765625 -1.96875q0 -0.984375 -0.703125 -1.640625q-0.6875 -0.671875 -1.8125 -0.671875q-1.1875 0 -1.90625 0.71875q-0.703125 0.703125 -0.703125 1.953125l-1.6875 -0.171875q0.171875 -1.890625 1.296875 -2.875q1.140625 -0.984375 3.03125 -0.984375q1.921875 0 3.046875 1.0625q1.125 1.0625 1.125 2.640625q0 0.796875 -0.328125 1.578125q-0.328125 0.78125 -1.09375 1.640625q-0.75 0.84375 -2.53125 2.34375q-1.46875 1.234375 -1.890625 1.6875q-0.421875 0.4375 -0.6875 0.875l6.546875 0z" fill-rule="nonzero"/><path fill="#cfe2f3" d="m91.178474 494.18372l216.94489 0l0 138.33075l-216.94489 0z" fill-rule="evenodd"/><path stroke="#000000" stroke-width="1.0" stroke-linejoin="round" stroke-linecap="butt" d="m91.178474 494.18372l216.94489 0l0 138.33075l-216.94489 0z" fill-rule="evenodd"/><path fill="#000000" d="m105.428474 570.2691l-5.171875 -13.359375l1.921875 0l3.46875 9.703125q0.421875 1.171875 0.703125 2.1875q0.3125 -1.09375 0.71875 -2.1875l3.609375 -9.703125l1.796875 0l-5.234375 13.359375l-1.8125 0zm8.584198 0l0 -13.359375l2.65625 0l3.15625 9.453125q0.4375 1.328125 0.640625 1.984375q0.234375 -0.734375 0.703125 -2.140625l3.203125 -9.296875l2.375 0l0 13.359375l-1.703125 0l0 -11.171875l-3.875 11.171875l-1.59375 0l-3.859375 -11.375l0 11.375l-1.703125 0zm14.931435 -3.53125l1.640625 -0.21875q0.28125 1.40625 0.953125 2.015625q0.6875 0.609375 1.65625 0.609375q1.15625 0 1.953125 -0.796875q0.796875 -0.796875 0.796875 -1.984375q0 -1.125 -0.734375 -1.859375q-0.734375 -0.734375 -1.875 -0.734375q-0.46875 0 -1.15625 0.171875l0.1875 -1.4375q0.15625 0.015625 0.265625 0.015625q1.046875 0 1.875 -0.546875q0.84375 -0.546875 0.84375 -1.671875q0 -0.90625 -0.609375 -1.5q-0.609375 -0.59375 -1.578125 -0.59375q-0.953125 0 -1.59375 0.609375q-0.640625 0.59375 -0.8125 1.796875l-1.640625 -0.296875q0.296875 -1.640625 1.359375 -2.546875q1.0625 -0.90625 2.65625 -0.90625q1.09375 0 2.0 0.46875q0.921875 0.46875 1.40625 1.28125q0.5 0.8125 0.5 1.71875q0 0.859375 -0.46875 1.578125q-0.46875 0.703125 -1.375 1.125q1.1875 0.28125 1.84375 1.140625q0.65625 0.859375 0.65625 2.15625q0 1.734375 -1.28125 2.953125q-1.265625 1.21875 -3.21875 1.21875q-1.765625 0 -2.921875 -1.046875q-1.15625 -1.046875 -1.328125 -2.71875z" fill-rule="nonzero"/><path fill="#cfe2f3" d="m698.41254 352.31226l0 0c-1.5818481 -12.173676 3.6116333 -24.224884 13.37677 -31.039856c9.765076 -6.814972 22.38916 -7.1984863 32.51538 -0.9878235l0 0c3.586975 -7.0782776 10.152283 -11.965332 17.7099 -13.182953c7.557678 -1.2175903 15.220093 1.3772583 20.669495 6.999695l0 0c3.055664 -6.417633 9.055542 -10.729431 15.870483 -11.4053955c6.8150024 -0.67596436 13.480652 2.3795776 17.631592 8.082397l0 0c5.520508 -6.8026733 14.303833 -9.66687 22.549255 -7.353241c8.245483 2.3135986 14.472168 9.389496 15.985779 18.165894l0 0c6.76355 1.9319763 12.397461 6.8433533 15.446106 13.465149c3.048645 6.6217957 3.2129517 14.304474 0.45043945 21.06305l0 0c6.660095 9.077484 8.218079 21.173126 4.0925293 31.77304c-4.1256104 10.599945 -13.315002 18.111603 -24.138794 19.731812c-0.076293945 9.948425 -5.286316 19.076965 -13.621887 23.867096c-8.33551 4.7901306 -18.495056 4.493866 -26.562561 -0.7746277l0 0c-3.4363403 11.9149475 -13.108459 20.681854 -24.837646 22.513062c-11.729187 1.8312378 -23.41278 -3.601471 -30.003052 -13.950989l0 0c-8.078247 5.1013184 -17.771484 6.5708313 -26.893066 4.0770874c-9.121582 -2.4937744 -16.90326 -8.740753 -21.589539 -17.331757l0 0c-8.254944 1.0116272 -16.236328 -3.4672546 -19.983032 -11.213745c-3.746704 -7.7464905 -2.4611206 -17.111572 3.218689 -23.447357l0 0c-7.3636475 -4.5386963 -11.121033 -13.544922 -9.312805 -22.322327c1.8082275 -8.777405 8.772278 -15.336975 17.260681 -16.258148z" fill-rule="evenodd"/><path fill="#000000" fill-opacity="0.0" d="m690.30145 391.3619l0 0c3.4749146 2.1418152 7.489258 3.1134033 11.504089 2.7842712m5.258484 31.877625c1.7265015 -0.21157837 3.4188232 -0.65960693 5.033264 -1.33255m43.4469 14.58667c-1.2142944 -1.9070129 -2.230957 -3.9447937 -3.0327148 -6.0786743m57.87555 -2.4837646l0 0c0.62646484 -2.1722717 1.0324097 -4.4079895 1.2109375 -6.6698914m38.971985 -16.421722c0.08117676 -10.591614 -5.66333 -20.289398 -14.766235 -24.927887m34.812256 -26.575867c-1.4741821 3.6066284 -3.7246704 6.8060303 -6.5750732 9.347351m-9.320068 -43.876495l0 0c0.25115967 1.4564209 0.36743164 2.9347534 0.34710693 4.4144897m-38.88147 -15.226685l0 0c-1.3770752 1.6969299 -2.5116577 3.5932007 -3.3682861 5.629822m-30.134155 -2.3075562l0 0c-0.7338867 1.5412903 -1.2818604 3.1722717 -1.6314087 4.855316m-36.748535 1.328064l0 0c2.1427002 1.3141785 4.125 2.8959045 5.9033203 4.7104797m-51.79486 27.317352l0 0c0.21801758 1.6778564 0.5625 3.335022 1.0302124 4.9559937" fill-rule="evenodd"/><path stroke="#000000" stroke-width="1.0" stroke-linejoin="round" stroke-linecap="butt" d="m698.41254 352.31226l0 0c-1.5818481 -12.173676 3.6116333 -24.224884 13.37677 -31.039856c9.765076 -6.814972 22.38916 -7.1984863 32.51538 -0.9878235l0 0c3.586975 -7.0782776 10.152283 -11.965332 17.7099 -13.182953c7.557678 -1.2175903 15.220093 1.3772583 20.669495 6.999695l0 0c3.055664 -6.417633 9.055542 -10.729431 15.870483 -11.4053955c6.8150024 -0.67596436 13.480652 2.3795776 17.631592 8.082397l0 0c5.520508 -6.8026733 14.303833 -9.66687 22.549255 -7.353241c8.245483 2.3135986 14.472168 9.389496 15.985779 18.165894l0 0c6.76355 1.9319763 12.397461 6.8433533 15.446106 13.465149c3.048645 6.6217957 3.2129517 14.304474 0.45043945 21.06305l0 0c6.660095 9.077484 8.218079 21.173126 4.0925293 31.77304c-4.1256104 10.599945 -13.315002 18.111603 -24.138794 19.731812c-0.076293945 9.948425 -5.286316 19.076965 -13.621887 23.867096c-8.33551 4.7901306 -18.495056 4.493866 -26.562561 -0.7746277l0 0c-3.4363403 11.9149475 -13.108459 20.681854 -24.837646 22.513062c-11.729187 1.8312378 -23.41278 -3.601471 -30.003052 -13.950989l0 0c-8.078247 5.1013184 -17.771484 6.5708313 -26.893066 4.0770874c-9.121582 -2.4937744 -16.90326 -8.740753 -21.589539 -17.331757l0 0c-8.254944 1.0116272 -16.236328 -3.4672546 -19.983032 -11.213745c-3.746704 -7.7464905 -2.4611206 -17.111572 3.218689 -23.447357l0 0c-7.3636475 -4.5386963 -11.121033 -13.544922 -9.312805 -22.322327c1.8082275 -8.777405 8.772278 -15.336975 17.260681 -16.258148z" fill-rule="evenodd"/><path stroke="#000000" stroke-width="1.0" stroke-linejoin="round" stroke-linecap="butt" d="m690.30145 391.3619l0 0c3.4749146 2.1418152 7.489258 3.1134033 11.504089 2.7842712m5.258484 31.877625c1.7265015 -0.21157837 3.4188232 -0.65960693 5.033264 -1.33255m43.4469 14.58667c-1.2142944 -1.9070129 -2.230957 -3.9447937 -3.0327148 -6.0786743m57.87555 -2.4837646l0 0c0.62646484 -2.1722717 1.0324097 -4.4079895 1.2109375 -6.6698914m38.971985 -16.421722c0.08117676 -10.591614 -5.66333 -20.289398 -14.766235 -24.927887m34.812256 -26.575867c-1.4741821 3.6066284 -3.7246704 6.8060303 -6.5750732 9.347351m-9.320068 -43.876495l0 0c0.25115967 1.4564209 0.36743164 2.9347534 0.34710693 4.4144897m-38.88147 -15.226685l0 0c-1.3770752 1.6969299 -2.5116577 3.5932007 -3.3682861 5.629822m-30.134155 -2.3075562l0 0c-0.7338867 1.5412903 -1.2818604 3.1722717 -1.6314087 4.855316m-36.748535 1.328064l0 0c2.1427002 1.3141785 4.125 2.8959045 5.9033203 4.7104797m-51.79486 27.317352l0 0c0.21801758 1.6778564 0.5625 3.335022 1.0302124 4.9559937" fill-rule="evenodd"/><path fill="#000000" d="m718.4751 380.9929l0 -13.359375l1.765625 0l0 13.359375l-1.765625 0zm4.8707886 0l0 -13.359375l1.8125 0l7.015625 10.484375l0 -10.484375l1.6875 0l0 13.359375l-1.8125 0l-7.015625 -10.5l0 10.5l-1.6875 0zm16.894836 0l0 -11.78125l-4.40625 0l0 -1.578125l10.578125 0l0 1.578125l-4.40625 0l0 11.78125l-1.765625 0zm8.020935 0l0 -13.359375l9.65625 0l0 1.578125l-7.875 0l0 4.09375l7.375 0l0 1.5625l-7.375 0l0 4.546875l8.1875 0l0 1.578125l-9.96875 0zm12.4436035 0l0 -13.359375l5.921875 0q1.78125 0 2.703125 0.359375q0.9375 0.359375 1.484375 1.28125q0.5625 0.90625 0.5625 2.015625q0 1.40625 -0.921875 2.390625q-0.921875 0.96875 -2.84375 1.234375q0.703125 0.34375 1.078125 0.671875q0.765625 0.703125 1.453125 1.765625l2.328125 3.640625l-2.21875 0l-1.765625 -2.78125q-0.78125 -1.203125 -1.28125 -1.828125q-0.5 -0.640625 -0.90625 -0.890625q-0.390625 -0.265625 -0.796875 -0.359375q-0.296875 -0.078125 -0.984375 -0.078125l-2.046875 0l0 5.9375l-1.765625 0zm1.765625 -7.453125l3.796875 0q1.21875 0 1.890625 -0.25q0.6875 -0.265625 1.046875 -0.8125q0.359375 -0.546875 0.359375 -1.1875q0 -0.953125 -0.6875 -1.5625q-0.6875 -0.609375 -2.1875 -0.609375l-4.21875 0l0 4.421875zm11.660461 7.453125l0 -13.359375l1.8125 0l7.015625 10.484375l0 -10.484375l1.6875 0l0 13.359375l-1.8125 0l-7.015625 -10.5l0 10.5l-1.6875 0zm13.519775 0l0 -13.359375l9.65625 0l0 1.578125l-7.875 0l0 4.09375l7.375 0l0 1.5625l-7.375 0l0 4.546875l8.1875 0l0 1.578125l-9.96875 0zm15.8186035 0l0 -11.78125l-4.40625 0l0 -1.578125l10.578125 0l0 1.578125l-4.40625 0l0 11.78125l-1.765625 0z" fill-rule="nonzero"/><path fill="#cfe2f3" d="m429.95538 360.0l0 0c0 -19.534363 28.858246 -35.370087 64.456696 -35.370087l0 0c35.59842 0 64.456696 15.835724 64.456696 35.370087l0 0c0 19.534363 -28.858276 35.370087 -64.456696 35.370087l0 0c-35.59845 0 -64.456696 -15.835724 -64.456696 -35.370087z" fill-rule="evenodd"/><path stroke="#000000" stroke-width="1.0" stroke-linejoin="round" stroke-linecap="butt" d="m429.95538 360.0l0 0c0 -19.534363 28.858246 -35.370087 64.456696 -35.370087l0 0c35.59842 0 64.456696 15.835724 64.456696 35.370087l0 0c0 19.534363 -28.858276 35.370087 -64.456696 35.370087l0 0c-35.59845 0 -64.456696 -15.835724 -64.456696 -35.370087z" fill-rule="evenodd"/><path fill="#000000" d="m465.52182 361.6856l0 -1.578125l5.65625 0l0 4.953125q-1.296875 1.046875 -2.6875 1.578125q-1.375 0.515625 -2.84375 0.515625q-1.96875 0 -3.578125 -0.84375q-1.609375 -0.84375 -2.421875 -2.4375q-0.8125 -1.59375 -0.8125 -3.5625q0 -1.953125 0.8125 -3.640625q0.8125 -1.6875 2.34375 -2.5q1.53125 -0.828125 3.515625 -0.828125q1.453125 0 2.625 0.46875q1.171875 0.46875 1.828125 1.3125q0.671875 0.828125 1.015625 2.171875l-1.59375 0.4375q-0.296875 -1.015625 -0.75 -1.59375q-0.4375 -0.59375 -1.265625 -0.9375q-0.828125 -0.34375 -1.84375 -0.34375q-1.203125 0 -2.09375 0.375q-0.890625 0.359375 -1.4375 0.96875q-0.53125 0.59375 -0.828125 1.3125q-0.515625 1.234375 -0.515625 2.6875q0 1.78125 0.609375 2.984375q0.625 1.203125 1.796875 1.796875q1.171875 0.578125 2.5 0.578125q1.140625 0 2.234375 -0.4375q1.09375 -0.453125 1.65625 -0.953125l0 -2.484375l-3.921875 0zm10.589539 5.234375l-3.53125 -13.359375l1.8125 0l2.03125 8.765625q0.328125 1.375 0.5625 2.71875q0.5 -2.140625 0.59375 -2.46875l2.546875 -9.015625l2.125 0l1.921875 6.765625q0.71875 2.515625 1.03125 4.71875q0.265625 -1.265625 0.671875 -2.890625l2.09375 -8.59375l1.78125 0l-3.671875 13.359375l-1.703125 0l-2.8125 -10.171875q-0.359375 -1.28125 -0.421875 -1.5625q-0.203125 0.90625 -0.390625 1.5625l-2.828125 10.171875l-1.8125 0z" fill-rule="nonzero"/><path fill="#000000" fill-opacity="0.0" d="m308.12335 185.49606l140.72443 149.48032" fill-rule="evenodd"/><path stroke="#000000" stroke-width="1.0" stroke-linejoin="round" stroke-linecap="butt" d="m308.12335 185.49606l140.72443 149.48032" fill-rule="evenodd"/><path fill="#000000" fill-opacity="0.0" d="m308.12335 371.27823l121.82678 -11.275604" fill-rule="evenodd"/><path stroke="#000000" stroke-width="1.0" stroke-linejoin="round" stroke-linecap="butt" d="m308.12335 371.27823l121.82678 -11.275604" fill-rule="evenodd"/><path fill="#000000" fill-opacity="0.0" d="m308.12335 563.34906l140.72443 -178.33069" fill-rule="evenodd"/><path stroke="#000000" stroke-width="1.0" stroke-linejoin="round" stroke-linecap="butt" d="m308.12335 563.34906l140.72443 -178.33069" fill-rule="evenodd"/><path fill="#000000" fill-opacity="0.0" d="m558.8688 360.0l122.42517 17.574799" fill-rule="evenodd"/><path stroke="#000000" stroke-width="1.0" stroke-linejoin="round" stroke-linecap="butt" d="m558.8688 360.0l122.42517 17.574799" fill-rule="evenodd"/><path fill="#000000" fill-opacity="0.0" d="m91.178474 185.49606l0 0" fill-rule="evenodd"/><path stroke="#000000" stroke-width="1.0" stroke-linejoin="round" stroke-linecap="butt" d="m91.178474 185.49606l0 0" fill-rule="evenodd"/></g></svg>